<svg width="339.95397529" height="343.02235093" xmlns="http://www.w3.org/2000/svg" fill="none">

 <g>
  <title>Layer 1</title>
  <path id="svg_1" fill="#ffffff" d="m320.4609,121.92707c-6.598,41.362 -27.653,79.041 -59.42,106.335s-72.185,42.433 -114.064,42.723c-8.483,0.326 -16.977,-0.19 -25.358,-1.539a77.723,77.723 0 0 1 -64.63,-73.266a75.479,75.479 0 0 1 22.14,-52.762a75.46,75.46 0 0 1 105.885,-0.748a75.478,75.478 0 0 1 22.884,52.443c0.317,12.51 -5.102,23.483 -16.239,23.8c-11.899,0 -17.477,-8.491 -17.477,-19.934l0,-31.797a19.478,19.478 0 0 0 -19.323,-19.494l-26.653,0a46.386,46.386 0 0 0 -39.119,20.961a46.399,46.399 0 0 0 31.587,71.268a46.392,46.392 0 0 0 41.8,-14.911l0.932,-1.39l0.933,1.543a32.82,32.82 0 0 0 27.986,13.328a36.992,36.992 0 0 0 34.268,-38.671a100.64,100.64 0 0 0 -2.761,-24.577c-4.943,-22.734 -18.126,-42.834 -37.008,-56.423a94.153,94.153 0 0 0 -125.236,13.718a94.175,94.175 0 0 0 -23.92,63.097a95.352,95.352 0 0 0 27.473,65.824a95.331,95.331 0 0 0 65.448,28.344s6.98,0.635 14.849,0.454a200.94,200.94 0 0 0 107.769,-32.155c0.457,-0.318 0.914,0.317 0.61,0.78a158.177,158.177 0 0 1 -123.225,50.396a111.185,111.185 0 0 1 -80.961,-32.871a111.215,111.215 0 0 1 -32.215,-81.232a115.099,115.099 0 0 1 46.223,-92.17a112.704,112.704 0 0 1 66.497,-21.953l35.772,0a100.637,100.637 0 0 0 74.247,-32.784a1.39,1.39 0 0 1 0.755,-0.431a1.418,1.418 0 0 1 1.52,0.663c0.153,0.257 0.222,0.555 0.197,0.854a100.93,100.93 0 0 1 -15.608,45.14a1.386,1.386 0 0 0 0.115,1.511a1.387,1.387 0 0 0 1.424,0.507a108.158,108.158 0 0 0 75.198,-62.013c0.173,-0.277 0.411,-0.507 0.695,-0.67a1.902,1.902 0 0 1 1.869,0c0.284,0.162 0.523,0.392 0.694,0.67a137.098,137.098 0 0 1 13.447,87.432zm-189.964,44.858a27.823,27.823 0 0 0 -27.293,33.255a27.83,27.83 0 0 0 21.862,21.865a27.824,27.824 0 0 0 33.251,-27.296l0,-25.977a2.007,2.007 0 0 0 -1.904,-1.904l-25.916,0.057z"/>
 </g>
</svg>